<?xml version="1.0" encoding="utf-8" ?>
<svg baseProfile="full" height="200mm" version="1.1" viewBox="0,0,200,200" width="200mm" xmlns="http://www.w3.org/2000/svg" xmlns:ev="http://www.w3.org/2001/xml-events" xmlns:xlink="http://www.w3.org/1999/xlink"><defs /><rect fill="#1a1a1a" height="200" width="200" x="0" y="0" /><text alignment-baseline="middle" fill="#e1ed5e" style="dominant-baseline: central; font-size:9.0px; font-family:Arial;" text-anchor="middle" x="100.0" y="100.0">2023</text><line stroke="#e1ed5e" stroke-width="0.3" x1="100.0" x2="100.0" y1="15.0" y2="10.0" /><path d="M 100.0 14.0 a86.0,86.0 0 0,1 42.46469731375804,11.215312516191453" fill="none" id="id13" stroke="none" /><text fill="#e1ed5e" style="font-size:6.75px; font-family:Arial;" text-anchor="middle"><textPath startOffset="22.20632615414155" xlink:href="#id13">January</textPath></text><path d="M 102.16513564639614 79.11191278185805 l 1.7764979421089484 -17.138715543936964 a38.23054019566142,38.23054019566142 0 0,0 0.6539849038614954,0.07348282396674967 l -2.0712495494801693 17.105596766499612" fill="#ffaf10" stroke="none" /><path d="M 105.71112130821622 79.79150937346287 l 4.635700890033604 -16.40317425037039 a38.04564015312633,38.04564015312633 0 0,0 0.6286766336242479,0.18352794880330336 l -4.9173677413812795 16.320947972648383" fill="#ffad10" stroke="none" /><path d="M 107.76421540070413 80.48803036053334 l 5.974251663068388 -15.013676341044315 a37.158655891110165,37.158655891110165 0 0,0 0.5922667386270983,0.24160047361816678 l -6.231802271283874 14.90861498124257" fill="#ffa00e" stroke="none" /><path d="M 110.05341064243156 81.56283822128135 l 8.185982132201925 -15.012445254360319 a38.09923436835389,38.09923436835389 0 0,0 0.573077636274372,0.3189170841286961 l -8.443183857548332 14.869312772671444" fill="#ffae10" stroke="none" /><line stroke="#e1ed5e" stroke-width="0.3" x1="143.23703022742887" x2="145.7803849466894" y1="26.81831364943548" y2="22.513508569990506" /><path d="M 143.74570117128098 25.957352633546492 a86.0,86.0 0 0,1 28.547481713284135,27.462654790039103" fill="none" id="id14" stroke="none" /><text fill="#e1ed5e" style="font-size:6.75px; font-family:Arial;" text-anchor="middle"><textPath startOffset="19.985693538727396" xlink:href="#id14">February</textPath></text><path d="M 110.68208982089419 81.91981866633111 l 6.97357356746423 -11.80325917095491 a34.70940025521055,34.70940025521055 0 0,0 0.5117784275165904,0.308340776250836 l -7.175714061198458 11.68147178524546" fill="#ff7d0b" stroke="none" /><path d="M 111.90073688211348 82.69761687909136 l 15.230007255301913 -22.142781835762577 a47.87481922586134,47.87481922586134 0 0,0 0.6749639605161659,0.47285538844667563 l -15.608902355401732 21.877341604551965" fill="#cfff1d" stroke="none" /><path d="M 112.48926042617603 83.11751280151076 l 5.475937748746174 -7.4021555951521565 a30.20748617609528,30.20748617609528 0 0,0 0.4153584675541899,0.31283938647772247 l -5.602542370058747 7.3067996191685864" fill="#ff3a05" stroke="none" /><path d="M 115.68641384162765 86.03803664274999 l 27.308772102253446 -24.306643906800762 a57.559293917481924,57.559293917481924 0 0,0 0.6523609656702272,0.7457613557566247 l -27.72312493150152 23.83296699484119" fill="#5dff2a" stroke="none" /><path d="M 116.38621287248628 86.86637796730983 l 10.70993394294446 -8.58405938555156 a34.72547851977882,34.72547851977882 0 0,0 0.36981959858907076,0.4696333344398843 l -10.856107622127496 8.398433657158638" fill="#ff7d0b" stroke="none" /><path d="M 116.60985879189232 87.15038557335679 l 11.343593907385078 -8.77555972922941 a35.34181199489579,35.34181199489579 0 0,0 0.36810021901712997,0.4843767400038718 l -11.49297006662632 8.578998213344505" fill="#ff860c" stroke="none" /><path d="M 117.2510076193507 88.02491185347247 l 14.878718906744965 -10.328322515828955 a39.11216503615483,39.11216503615483 0 0,0 0.3791561855279954,0.5563649168463936 l -15.054299557941693 10.070679575712155" fill="#ffbc11" stroke="none" /><line stroke="#e1ed5e" stroke-width="0.3" x1="172.23445277983987" x2="176.4835382374775" y1="55.19839476539836" y2="52.563006222186495" /><path d="M 173.08426987136738 54.67131705675599 a86.0,86.0 0 0,1 12.851231095245387,41.99856678651699" fill="none" id="id15" stroke="none" /><text fill="#e1ed5e" style="font-size:6.75px; font-family:Arial;" text-anchor="middle"><textPath startOffset="22.20632615414155" xlink:href="#id15">March</textPath></text><path d="M 117.84615892207809 88.93136811851018 l 24.409992873554444 -15.139685045217698 a49.72381965121225,49.72381965121225 0 0,0 0.44487238863465645,0.7312532355968268 l -24.666981060475326 14.71726403641379" fill="#b8ff1f" stroke="none" /><path d="M 118.3937258080291 89.86733742301442 l 40.06327169084416 -22.069895898753764 a66.73998298596342,66.73998298596342 0 0,0 0.5456530731898751,1.011012274281101 l -40.4372328632525 21.377002641140205" fill="#36ff6e" stroke="none" /><path d="M 119.04729006885535 91.15688171328212 l 19.453999537786252 -9.031941994924278 a42.44840493407061,42.44840493407061 0 0,0 0.3019853974167514,0.6653847935264778 l -19.60658725216635 8.695735192555738" fill="#ffe915" stroke="none" /><path d="M 119.47837535516314 92.15188598940014 l 10.071421982873797 -4.057918924408837 a31.85818800510421,31.85818800510421 0 0,0 0.20056466396934378,0.5104151931683094 l -10.139780196724843 3.883954726344744" fill="#ff5307" stroke="none" /><path d="M 120.28053869075195 94.5502522615342 l 54.9851899909494 -14.775515550725158 a77.93581454700129,77.93581454700129 0 0,0 0.33699323045445434,1.2985723851313167 l -55.23137955327416 13.82684674004499" fill="#45ffee" stroke="none" /><path d="M 120.67395015179393 96.31383870115 l 10.21738097888957 -1.8217570451441119 a31.378519778817527,31.378519778817527 0 0,0 0.09023287608065017,0.5325595424182447 l -10.247225716490444 1.6456117144100293" fill="#ff4c07" stroke="none" /><path d="M 120.78858239683441 97.02765380044208 l 62.36574719050324 -8.917038598673738 a84.0,84.0 0 0,0 0.19233600376865523,1.4331266317413425 l -62.50999919332973 7.84219362486773" fill="#4dd2ff" stroke="none" /><path d="M 120.94382443527127 98.46500227214037 l 12.999246540173475 -0.9527301933189185 a34.03411314334326,34.03411314334326 0 0,0 0.0377931144853152,0.5846427534594153 l -13.013720245663206 0.7288283756064681" fill="#ff730a" stroke="none" /><line stroke="#e1ed5e" stroke-width="0.3" x1="184.98032266829074" x2="189.97916517819016" y1="98.17113171792111" y2="98.06355123074" /><path d="M 185.9800911702706 98.14961562048488 a86.0,86.0 0 0,1 -9.607161424134198,41.387399972396054" fill="none" id="id16" stroke="none" /><text fill="#e1ed5e" style="font-size:6.75px; font-family:Arial;" text-anchor="middle"><textPath startOffset="21.466115282336823" xlink:href="#id16">April</textPath></text><path d="M 120.99980553446 99.90962569577887 l 56.13942058021311 -0.24160038367920134 a77.13994045087196,77.13994045087196 0 0,0 -0.005714610211761793,1.3278741583296378 l -56.13526167271185 -0.7247832528541212" fill="#44ffe6" stroke="none" /><path d="M 120.99824983174949 100.27111621757518 l 5.701949252483572 0.07361998864312984 a26.702424500212675,26.702424500212675 0 0,0 -0.009889989710522634,0.45954895987963873 l -5.699837200088042 -0.17175876431288342" fill="#ff0400" stroke="none" /><path d="M 120.92983693683757 101.71520430193887 l 11.080973217899501 0.9080879602821404 a32.11811994895789,32.11811994895789 0 0,0 -0.049898410959812935,0.5506248069740132 l -11.063700210662613 -1.098694155804724" fill="#ff5708" stroke="none" /><path d="M 120.89721153311464 102.0752229133903 l 23.35136725591046 2.3189358212537887 a44.466227137388344,44.466227137388344 0 0,0 -0.08219412373356598,0.7610155040516035 l -23.30799083067584 -2.7205476471901835" fill="#fbff18" stroke="none" /><path d="M 120.8583938346157 102.4346265915055 l 5.3871615212159325 0.6287984969639069 a26.42373458102935,26.42373458102935 0 0,0 -0.056620389343247084,0.45132021236368713 l -5.375539622625837 -0.7214364636149889" fill="#ff0000" stroke="none" /><path d="M 120.5718875245553 104.21870165774334 l 18.729955442922417 3.840974435729312 a40.11973628243301,40.11973628243301 0 0,0 -0.14455706723486342,0.6753224925956091 l -18.66106433696311 -4.16281074774109" fill="#ffc912" stroke="none" /><path d="M 120.32669344350535 105.2749913415812 l 18.571559981560817 4.81951569617883 a40.18672905146746,40.18672905146746 0 0,0 -0.17952354084999755,0.6680738798992805 l -18.485848364369044 -5.138480509253659" fill="#ffca12" stroke="none" /><path d="M 120.23288151984713 105.62410040840565 l 18.447121028410166 5.127715536119747 a40.146533390046784,40.146533390046784 0 0,0 -0.19080569694403496,0.6642196624179737 l -18.356122694580034 -5.444492674042302" fill="#ffca12" stroke="none" /><path d="M 119.79798401119884 107.00284435728193 l 14.76638237500517 5.223091272009294 a36.66290940025521,36.66290940025521 0 0,0 -0.21557046818547293,0.5931573446143491 l -14.67428764581447 -5.476496413629775" fill="#ff990e" stroke="none" /><path d="M 119.54520255179757 107.68017299344265 l 18.326433222110825 7.201264715757112 a40.69051467460655,40.69051467460655 0 0,0 -0.26177057890764543,0.6496931091998499 l -18.19976002894579 -7.515657192799776" fill="#ffd113" stroke="none" /><path d="M 118.81262510543309 109.33194174019688 l 26.831396529573663 13.309627328393937 a50.95112717992343,50.95112717992343 0 0,0 -0.3965000466491462,0.7823322080079376 l -26.598317813138248 -13.769513748104568" fill="#a9ff21" stroke="none" /><line stroke="#e1ed5e" stroke-width="0.3" x1="174.80103733775053" x2="179.2010983576182" y1="140.37084112569926" y2="142.7455964860345" /><path d="M 175.68104954172406 140.8457921977663 a86.0,86.0 0 0,1 -30.038265399797805,32.042727171017184" fill="none" id="id17" stroke="none" /><text fill="#e1ed5e" style="font-size:6.75px; font-family:Arial;" text-anchor="middle"><textPath startOffset="22.206326154141568" xlink:href="#id17">May</textPath></text><path d="M 117.75023020441432 111.22182372390056 l 16.516547679785955 10.441880722418052 a40.54045087196937,40.54045087196937 0 0,0 -0.377982053201582,0.5866365404493805 l -16.33436076320732 -10.724638862788884" fill="#ffcf13" stroke="none" /><path d="M 117.14729908036423 112.12312394758627 l 23.545991331833207 16.646993211396325 a49.83636750319013,49.83636750319013 0 0,0 -0.5012594233937896,0.6962054977058715 l -23.255952116063813 -17.049832314553328" fill="#b7ff1f" stroke="none" /><path d="M 116.93607887273984 112.41649034213515 l 10.913721604509082 8.001268765774025 a34.53253934495959,34.53253934495959 0 0,0 -0.35558440789314083,0.4763634231463157 l -10.774375929920849 -8.187945068429656" fill="#ff7b0b" stroke="none" /><path d="M 115.56566222782051 114.09645910891815 l 10.01075341916828 9.065863961158767 a34.505742237345814,34.505742237345814 0 0,0 -0.40249073837198046,0.43682420361652224 l -9.853216272800577 -9.236839419576624" fill="#ff7a0b" stroke="none" /><path d="M 115.07121518719521 114.62390073753431 l 20.449029913072724 19.842101642986268 a49.49336452573373,49.49336452573373 0 0,0 -0.5985382818501841,0.6063161194821503 l -20.104451006167004 -20.191158256449082" fill="#bbff1f" stroke="none" /><path d="M 114.29624159901734 115.38237550388516 l 23.9874029075473 25.80980716723768 a56.23551680136112,56.23551680136112 0 0,0 -0.7147278462022393,0.6528869414720755 l -23.539575511878194 -26.218886875296334" fill="#6cff28" stroke="none" /><path d="M 113.48314897796784 116.09983520530334 l 12.306886172616414 14.695294073611418 a40.16797107613782,40.16797107613782 0 0,0 -0.5339086001477578,0.4393704296091683 l -12.052107443923965 -14.904959622077763" fill="#ffca12" stroke="none" /><path d="M 112.92097659922987 116.55440617244103 l 5.309086939538949 6.802023123172286 a29.628668651637604,29.628668651637604 0 0,0 -0.40474351662572583,0.3103400693996635 l -5.191214694419729 -6.892402534399321" fill="#ff3204" stroke="none" /><path d="M 111.45004920935366 117.60387380957326 l 14.752592114016675 22.68136714443997 a48.05703955763505,48.05703955763505 0 0,0 -0.6973264044267586,0.4450667041620698 l -14.359983907542986 -22.93194827742585" fill="#cdff1d" stroke="none" /><line stroke="#e1ed5e" stroke-width="0.3" x1="143.8653032363475" x2="146.44561519142675" y1="172.8068346515853" y2="177.08958963109032" /><path d="M 144.38136562736335 173.6633856474863 a86.0,86.0 0 0,1 -40.68145358897372,12.25698825130547" fill="none" id="id18" stroke="none" /><text fill="#e1ed5e" style="font-size:6.75px; font-family:Arial;" text-anchor="middle"><textPath startOffset="21.466115282336833" xlink:href="#id18">June</textPath></text><path d="M 109.89434966115114 118.52300852407294 l 6.353258293693647 11.893804197337515 a34.48430455125479,34.48430455125479 0 0,0 -0.5259826889435182,0.2751692833781482 l -6.147584702223632 -12.001402899660379" fill="#ff7a0b" stroke="none" /><path d="M 109.2508944713604 118.85261126421891 l 8.308098080319155 16.931264748307864 a39.85980433857932,39.85980433857932 0 0,0 -0.6185621566634459,0.29694742515881034 l -8.015423255655477 -17.071766449966237" fill="#ffc612" stroke="none" /><path d="M 107.93186726928326 119.44442032107085 l 10.741927774849415 26.333087988199683 a49.43977031050616,49.43977031050616 0 0,0 -0.7907512786966713,0.31465625303991884 l -10.287055420110878 -26.51409108564567" fill="#bcff1f" stroke="none" /><path d="M 106.91757812671514 119.82793768551818 l 6.376765340798404 18.27779946918546 a40.35823054019566,40.35823054019566 0 0,0 -0.6578973256669592,0.22319449281025117 l -6.061198282194218 -18.384856948893834" fill="#ffcd13" stroke="none" /><path d="M 102.34483914955558 120.86867818915974 l 1.5056440579196582 13.399981537369436 a34.48430455125479,34.48430455125479 0 0,0 -0.5904491354931563,0.06120246709472527 l -1.2747623258208993 -13.423913372919921" fill="#ff7a0b" stroke="none" /><path d="M 101.98527174616119 120.90594882070398 l 1.7766113257118372 18.70864556523994 a39.792811569544874,39.792811569544874 0 0,0 -0.6824574857053194,0.05888530349799335 l -1.454309522264976 -18.736455121016597" fill="#ffc512" stroke="none" /><line stroke="#e1ed5e" stroke-width="0.3" x1="102.19456741930631" x2="102.32365962044197" y1="184.97166512339345" y2="189.96999836594603" /><path d="M 102.22038585953345 185.97133177190398 a86.0,86.0 0 0,1 -42.740103519485714,-10.115201625700543" fill="none" id="id19" stroke="none" /><text fill="#e1ed5e" style="font-size:6.75px; font-family:Arial;" text-anchor="middle"><textPath startOffset="22.20632615414155" xlink:href="#id19">July</textPath></text><path d="M 100.18074693466247 120.99922214144158 l 0.1373015527918724 15.951727274521696 a36.95231816248405,36.95231816248405 0 0,0 -0.6360969749086447,0.0 l 0.1373015527918614 -15.951727274521696" fill="#ff9d0e" stroke="none" /><path d="M 98.73552117531835 120.96189622390904 l -1.6583981318687344 27.492093073926466 a48.542067205444496,48.542067205444496 0 0,0 -0.8336227191931019,-0.057491503428626085 l 2.1313836118407665 -27.459473225981554" fill="#c7ff1e" stroke="none" /><path d="M 95.16358092515715 120.4354850818985 l -7.298446445651836 30.838372596154617 a52.690259464057846,52.690259464057846 0 0,0 -0.8807972624231176,-0.2164785374126755 l 7.828196992818164 -30.70817280042791" fill="#95ff23" stroke="none" /><path d="M 93.76903079525671 120.05430185196036 l -8.196732649727597 26.381088616570743 a48.62513823904722,48.62513823904722 0 0,0 -0.7971712946526789,-0.25522907470802014 l 8.649625289471217 -26.236086695203017" fill="#c6ff1e" stroke="none" /><path d="M 92.40401165467489 119.57807347666478 l -5.5356047775608355 14.267593912194718 a36.303828158230544,36.303828158230544 0 0,0 -0.5806519398737032,-0.23105339016606707 l 5.780377793476397 -14.170193677622583" fill="#ff940d" stroke="none" /><line stroke="#e1ed5e" stroke-width="0.3" x1="58.666819895761336" x2="56.23545636021788" y1="174.27360380694188" y2="178.64263932499728" /><path d="M 58.180547188652646 175.14741091055294 a86.0,86.0 0 0,1 -31.652253787137756,-30.449443065178592" fill="none" id="id20" stroke="none" /><text fill="#e1ed5e" style="font-size:6.75px; font-family:Arial;" text-anchor="middle"><textPath startOffset="22.20632615414155" xlink:href="#id20">August</textPath></text><path d="M 89.1626897886671 117.98757091392108 l -14.123536689282385 23.441990014105826 a48.367886005954915,48.367886005954915 0 0,0 -0.7094435688160534,-0.4357981841646173 l 14.524959458030748 -23.19540336311283" fill="#c9ff1d" stroke="none" /><path d="M 88.24862548938628 117.40417183066458 l -7.838081824795135 11.608456762086401 a35.006848149723524,35.006848149723524 0 0,0 -0.49650231964033636,-0.3414988227984824 l 8.036741029058362 -11.471817149922817" fill="#ff820b" stroke="none" /><path d="M 87.36589467227662 116.77436683061367 l -4.967121886182351 6.594873356672142 a29.256188855806037,29.256188855806037 0 0,0 -0.3996552426904648,-0.30643859792123584 l 5.0799058573663025 -6.508395416923539" fill="#ff2c04" stroke="none" /><path d="M 84.67929136418377 114.36230785411682 l -10.05653660858852 9.427440867917092 a34.784432156529135,34.784432156529135 0 0,0 -0.40574150488431826,-0.44035226863147836 l 10.217324521468568 -9.25293734448427" fill="#ff7e0b" stroke="none" /><path d="M 82.85270091963577 112.12312394758628 l -12.616502743179092 8.919855297547747 a36.45121225010634,36.45121225010634 0 0,0 -0.3578104679084492,-0.5154526657878515 l 12.768174118249675 -8.701361369572883" fill="#ff960d" stroke="none" /><line stroke="#e1ed5e" stroke-width="0.3" x1="26.63291911575756" x2="22.317208475507996" y1="142.92168965132927" y2="145.44649492493687" /><path d="M 25.769776987707644 143.4266507060508 a86.0,86.0 0 0,1 -11.730757126820373,-40.83630448921669" fill="none" id="id21" stroke="none" /><text fill="#e1ed5e" style="font-size:6.75px; font-family:Arial;" text-anchor="middle"><textPath startOffset="21.46611528233685" xlink:href="#id21">September</textPath></text><path d="M 81.18737489456691 109.33194174019688 l -12.509475468874326 6.205284781986297 a34.96397277754147,34.96397277754147 0 0,0 -0.26280710660697815,-0.5414604805040774 l 12.614435832096024 -5.9890353455169345" fill="#ff810b" stroke="none" /><path d="M 80.32549172779594 107.34259656027581 l -35.95137708948899 13.417181974880851 a59.37345810293492,59.37345810293492 0 0,0 -0.3491038864731065,-0.9605839614208164 l 36.177005236967325 -12.796350216453918" fill="#49ff2c" stroke="none" /><path d="M 79.35854240842038 103.8639653848113 l -33.04869527500444 6.186530868240948 a54.62275157633294,54.62275157633294 0 0,0 -0.16504799603528633,-0.9256768128273661 l 33.15028971337892 -5.616735304680367" fill="#7eff26" stroke="none" /><line stroke="#e1ed5e" stroke-width="0.3" x1="15.007084014347285" x2="10.007500721073583" y1="101.09737516637583" y2="101.16192664675087" /><path d="M 14.007167355692545 101.11028546245083 a86.0,86.0 0 0,1 10.666146001902534,-42.60595125391555" fill="none" id="id22" stroke="none" /><text fill="#e1ed5e" style="font-size:6.75px; font-family:Arial;" text-anchor="middle"><textPath startOffset="22.20632615414155" xlink:href="#id22">October</textPath></text><line stroke="#e1ed5e" stroke-width="0.3" x1="26.266209847984243" x2="21.928928074336255" y1="57.711370442889674" y2="55.22380399835377" /><path d="M 25.398753493254645 57.213857153982495 a86.0,86.0 0 0,1 29.58750427330803,-30.492523968695096" fill="none" id="id23" stroke="none" /><text fill="#e1ed5e" style="font-size:6.75px; font-family:Arial;" text-anchor="middle"><textPath startOffset="21.46611528233685" xlink:href="#id23">November</textPath></text><path d="M 85.57189188830299 84.74124197986013 l -6.187946154412633 -6.544196389496821 a30.006507868991918,30.006507868991918 0 0,0 0.37835651040746054,-0.3516411416416149 l 6.074381760210317 6.6497421172130835" fill="#ff3705" stroke="none" /><path d="M 86.65592168130627 83.78471172551755 l -8.037096937163048 -9.766417778250595 a33.64823479370481,33.64823479370481 0 0,0 0.4504002116578166,-0.36419231459209106 l 7.86779332694073 9.903316190106821" fill="#ff6e0a" stroke="none" /><line stroke="#e1ed5e" stroke-width="0.3" x1="56.762969772571076" x2="54.21961505331055" y1="26.818313649435495" y2="22.513508569990535" /><path d="M 56.25429882871897 25.957352633546506 a86.0,86.0 0 0,1 42.265352541879196,-11.944610805530505" fill="none" id="id24" stroke="none" /><text fill="#e1ed5e" style="font-size:6.75px; font-family:Arial;" text-anchor="middle"><textPath startOffset="22.20632615414155" xlink:href="#id24">December</textPath></text><path d="M 99.27714615592234 79.0124445844662 l -0.3983844005833374 -11.566812229649996 a32.57367077839217,32.57367077839217 0 0,0 0.5605360482496106,-0.014476992383860948 l 0.1992217171388478 11.571956014176216" fill="#ff5e08" stroke="none" /></svg>