<?xml version="1.0" encoding="utf-8" ?>
<svg baseProfile="full" height="200mm" version="1.1" viewBox="0,0,200,200" width="200mm" xmlns="http://www.w3.org/2000/svg" xmlns:ev="http://www.w3.org/2001/xml-events" xmlns:xlink="http://www.w3.org/1999/xlink"><defs /><rect fill="#1a1a1a" height="200" width="200" x="0" y="0" /><text alignment-baseline="middle" fill="#e1ed5e" style="dominant-baseline: central; font-size:9.0px; font-family:Arial;" text-anchor="middle" x="100.0" y="100.0">2024</text><line stroke="#e1ed5e" stroke-width="0.3" x1="100.0" x2="100.0" y1="15.0" y2="10.0" /><path d="M 100.0 14.0 a86.0,86.0 0 0,1 42.35913384403234,11.155469271406648" fill="none" id="id25" stroke="none" /><text fill="#e1ed5e" style="font-size:6.75px; font-family:Arial;" text-anchor="middle"><textPath startOffset="22.145653131862478" xlink:href="#id25">January</textPath></text><path d="M 102.15924093988457 79.11130261209362 l 2.1819697918833527 -21.10857841304222 a42.22105263157894,42.22105263157894 0 0,0 0.7202993978341877,0.08071104992809017 l -2.544005091318337 21.06801160260716" fill="red" stroke="none" /><line stroke="#e1ed5e" stroke-width="0.3" x1="143.13028292997686" x2="145.6673583964461" y1="26.7553504044142" y2="22.446841604673864" /><path d="M 143.63769802327073 25.89364864446614 a86.0,86.0 0 0,1 29.32050498858742,28.57503671076992" fill="none" id="id26" stroke="none" /><text fill="#e1ed5e" style="font-size:6.75px; font-family:Arial;" text-anchor="middle"><textPath startOffset="20.669276256404974" xlink:href="#id26">February</textPath></text><line stroke="#e1ed5e" stroke-width="0.3" x1="172.87174338648825" x2="177.1583165268699" y1="56.24261187166439" y2="53.66864786411523" /><path d="M 173.72905801456457 55.72781907015455 a86.0,86.0 0 0,1 12.242430191666344,42.057860355516425" fill="none" id="id27" stroke="none" /><text fill="#e1ed5e" style="font-size:6.75px; font-family:Arial;" text-anchor="middle"><textPath startOffset="22.145653131862474" xlink:href="#id27">March</textPath></text><path d="M 120.7213421655516 96.59031103205396 l 12.881161825720097 -2.11959027656529 a34.054385964912285,34.054385964912285 0 0,0 0.08996602473718751,0.5776464160842769 l -12.91564934259555 1.8981556785495717" fill="red" stroke="none" /><path d="M 120.98066250479742 99.09900007780936 l 26.330117973856883 -1.130728557322291 a47.35438596491228,47.35438596491228 0 0,0 0.027905968970850056,0.8124518385033647 l -26.34564862982458 0.6785704542548063" fill="red" stroke="none" /><line stroke="#e1ed5e" stroke-width="0.3" x1="184.99686870605535" x2="189.99668451229388" y1="99.2704041080226" y2="99.22748670261217" /><path d="M 185.99683186730306 99.26182062694052 a86.0,86.0 0 0,1 -10.086455211305974,41.156179273409016" fill="none" id="id28" stroke="none" /><text fill="#e1ed5e" style="font-size:6.75px; font-family:Arial;" text-anchor="middle"><textPath startOffset="21.40746469413373" xlink:href="#id28">April</textPath></text><path d="M 120.99922638620191 99.81974689727618 l 20.286971923979852 -0.17413925479518366 a41.28771929824561,41.28771929824561 0 0,0 0.0,0.7087847150380187 l -20.286971923979852 -0.1741392547951812" fill="red" stroke="none" /><path d="M 120.99303781780057 100.54070618675476 l 31.999036884267372 0.8241816817405074 a53.00964912280702,53.00964912280702 0 0,0 -0.031238619051529297,0.9094783093619979 l -31.980173578218995 -1.373366255666616" fill="red" stroke="none" /><path d="M 120.93736805541906 101.62068470465957 l 32.83860884481516 2.5419160104660627 a53.93684210526316,53.93684210526316 0 0,0 -0.07938059012369732,0.9225227835825215 l -32.79013463199372 -3.105259841424242" fill="red" stroke="none" /><path d="M 120.9064616781168 101.97986365728391 l 31.64700354023704 2.9970041385259694 a52.78859649122807,52.78859649122807 0 0,0 -0.09317842743716866,0.9014167607993103 l -31.590892720318205 -3.5398254216082106" fill="red" stroke="none" /><path d="M 120.86939407059847 102.33845913500099 l 30.87083760326247 3.4591417438508665 a52.0640350877193,52.0640350877193 0 0,0 -0.10714757035213797,0.8873355887036318 l -30.806907946650668 -3.9885710094779068" fill="red" stroke="none" /><path d="M 120.82617615685814 102.69636545807758 l 31.40977094066498 4.066623693790679 a52.6719298245614,52.6719298245614 0 0,0 -0.12379278859339382,0.8957029509531186 l -31.335333635516378 -4.605214952943883" fill="red" stroke="none" /><path d="M 120.35273937422433 105.17358676015961 l 12.110475037001901 3.0784353967616385 a33.49561403508772,33.49561403508772 0 0,0 -0.14644046263456034,0.5560582890778826 l -12.055845093562612 -3.2858741902123243" fill="red" stroke="none" /><path d="M 120.26092885502905 105.52220625578681 l 12.32836051091096 3.3601494790328497 a33.7780701754386,33.7780701754386 0 0,0 -0.15727955412214534,0.5581296522250148 l -12.268862464714234 -3.5712870551608726" fill="red" stroke="none" /><path d="M 120.16314734710363 105.8691983318838 l 30.044268678608223 8.745448742479482 a52.291228070175436,52.291228070175436 0 0,0 -0.2582780289032426,0.8597235578425143 l -29.889714329701352 -9.25990990391272" fill="red" stroke="none" /><path d="M 120.05942366710727 106.21446072829308 l 23.948136500818414 7.419193904567433 a46.07105263157895,46.07105263157895 0 0,0 -0.24052442617639092,0.7534393392437305 l -23.81724735886477 -7.829202277502547" fill="red" stroke="none" /><path d="M 119.58574465831526 107.57618678355244 l 40.9410785269871 15.836888688776746 a64.89736842105263,64.89736842105263 0 0,0 -0.4108353404336348,1.0355734354005346 l -40.66318451158734 -16.537363141390845" fill="red" stroke="none" /><path d="M 119.4528033332814 107.91128576633889 l 31.38044327184604 12.76215309148878 a54.876315789473686,54.876315789473686 0 0,0 -0.362377464145447,0.8695739950652924 l -31.15673996316411 -13.29895959599535" fill="red" stroke="none" /><path d="M 119.16976305983485 108.57439118712176 l 34.825069558699965 15.576810656604534 a59.15,59.15 0 0,0 -0.4225437573249254,0.9233343667619597 l -34.55254133651999 -16.172334005581185" fill="red" stroke="none" /><path d="M 118.8641267826498 109.22738970284198 l 15.12991221193229 7.400798232425591 a37.84298245614035,37.84298245614035 0 0,0 -0.29045405698131394,0.5811026814218815 l -15.000638241739244 -7.659432770011217" fill="red" stroke="none" /><line stroke="#e1ed5e" stroke-width="0.3" x1="174.33088141563837" x2="178.70328620479359" y1="141.23008692659167" y2="143.65538615756765" /><path d="M 175.20536237346943 141.71514677278685 a86.0,86.0 0 0,1 -30.301960400862466,31.63118572779886" fill="none" id="id29" stroke="none" /><text fill="#e1ed5e" style="font-size:6.75px; font-family:Arial;" text-anchor="middle"><textPath startOffset="22.145653131862474" xlink:href="#id29">May</textPath></text><path d="M 110.96478420261333 117.91015095944535 l 3.7318739215912027 6.095735589705963 a28.147368421052633,28.147368421052633 0 0,0 -0.4142585508598601,0.24875035717641147 l -3.6266826141739084 -6.1588999474182975" fill="red" stroke="none" /><line stroke="#e1ed5e" stroke-width="0.3" x1="143.1302829299769" x2="145.6673583964461" y1="173.24464959558577" y2="177.55315839532614" /><path d="M 143.63769802327073 174.10635135553383 a86.0,86.0 0 0,1 -40.685524379131806,11.842963189579606" fill="none" id="id30" stroke="none" /><text fill="#e1ed5e" style="font-size:6.75px; font-family:Arial;" text-anchor="middle"><textPath startOffset="21.407464694133747" xlink:href="#id30">June</textPath></text><path d="M 110.02825361518725 118.45085714620011 l 3.8089770310316506 7.008088723074253 a28.976315789473684,28.976315789473684 0 0,0 -0.4390756076910097,0.23378303006350856 l -3.688112607554087 -7.072442220860331" fill="red" stroke="none" /><path d="M 109.71004243097381 118.62028667847754 l 4.619368138945727 8.858247492948234 a30.99035087719298,30.99035087719298 0 0,0 -0.4738170502957748,0.24193436196116824 l -4.466623866936369 -8.936239806582238" fill="red" stroke="none" /><path d="M 109.06512990194946 118.94263497670748 l 14.329266739748183 29.942656340374462 a54.194736842105264,54.194736842105264 0 0,0 -0.8426282489386216,0.3943925672977985 l -13.813149776938054 -30.184225139242795" fill="red" stroke="none" /><path d="M 108.73861861582097 119.09545874513695 l 13.332781268232107 29.1345332550072 a53.040350877192985,53.040350877192985 0 0,0 -0.8311842181675715,0.3717781285499162 l -12.83068364720891 -29.359115134466965" fill="red" stroke="none" /><path d="M 108.07796709384702 119.3841803445677 l 11.439062758918462 27.44958637682496 a50.737719298245615,50.737719298245615 0 0,0 -0.8068397623343238,0.3281347072764026 l -10.966168535393699 -27.641908340680658" fill="red" stroke="none" /><path d="M 106.0420521117495 120.11202640906438 l 8.554273779266401 28.47439528441221 a50.73157894736842,50.73157894736842 0 0,0 -0.8362013385096972,0.2434060227112848 l -8.064212428375097 -28.617045001426014" fill="red" stroke="none" /><path d="M 103.58742460773223 120.69131181640829 l 7.557717631201968 43.59090691146834 a65.24122807017544,65.24122807017544 0 0,0 -1.1051320263336553,0.18184905438114002 l -6.80830810181524 -43.71422196434515" fill="red" stroke="none" /><path d="M 103.2317021107853 120.74984581791261 l 9.57131891232291 61.454733418022485 a83.19561403508771,83.19561403508771 0 0,0 -1.4130374690413676,0.20766784733141583 l -8.514956337673858 -61.609982338652785" fill="red" stroke="none" /><line stroke="#e1ed5e" stroke-width="0.3" x1="101.45913802915013" x2="101.54496967792366" y1="184.9874750549273" y2="189.98673829345242" /><path d="M 101.47630435890484 185.9873277026323 a86.0,86.0 0 0,1 -42.54439059252881,-10.42667462771756" fill="none" id="id31" stroke="none" /><text fill="#e1ed5e" style="font-size:6.75px; font-family:Arial;" text-anchor="middle"><textPath startOffset="22.145653131862474" xlink:href="#id31">July</textPath></text><path d="M 96.05791012581884 120.62667999033965 l -4.043523765680568 21.157424972547222 a42.54035087719298,42.54035087719298 0 0,0 -0.7161030258016134,-0.14324066079523265 l 4.40612327701314 -21.084894915089126" fill="red" stroke="none" /><path d="M 93.61358852112213 120.00534299687104 l -6.210878531797605 19.45548854023189 a41.42280701754386,41.42280701754386 0 0,0 -0.6755414069673457,-0.22206387842747444 l 6.543942676412694 -19.346003740402395" fill="red" stroke="none" /><line stroke="#e1ed5e" stroke-width="0.3" x1="58.13341422392154" x2="55.670673884152215" y1="173.97424548756322" y2="178.32567169271397" /><path d="M 57.64086615596767 174.84453072859336 a86.0,86.0 0 0,1 -31.369924170532244,-30.572349798747886" fill="none" id="id32" stroke="none" /><text fill="#e1ed5e" style="font-size:6.75px; font-family:Arial;" text-anchor="middle"><textPath startOffset="22.145653131862474" xlink:href="#id32">August</textPath></text><path d="M 86.68645165197938 116.24036423190432 l -12.207978836079722 14.891749190424552 a40.25614035087719,40.25614035087719 0 0,0 -0.5306634693668513,-0.44269833984613416 l 12.461816639608465 -14.679988666666548" fill="red" stroke="none" /><path d="M 85.08716467003676 114.78537596483093 l -30.71956868409096 30.457009845682418 a64.25877192982456,64.25877192982456 0 0,0 -0.7699216742563681,-0.7900074641845406 l 31.237877159498137 -29.92517968943014" fill="red" stroke="none" /><line stroke="#e1ed5e" stroke-width="0.3" x1="26.387840678322732" x2="22.057713659400548" y1="142.50000000000003" y2="145.00000000000006" /><path d="M 25.521815274538298 143.00000000000003 a86.0,86.0 0 0,1 -11.493303480769221,-40.785679425670985" fill="none" id="id33" stroke="none" /><text fill="#e1ed5e" style="font-size:6.75px; font-family:Arial;" text-anchor="middle"><textPath startOffset="21.40746469413373" xlink:href="#id33">September</textPath></text><path d="M 81.81346652052679 110.50000000000001 l -54.559600438419615 31.50000000000003 a84.0,84.0 0 0,0 -0.7102665399144867,-1.2549729196035138 l 55.09230034335548 -30.558770310297394" fill="red" stroke="none" /><path d="M 80.68587082218212 108.24405325689762 l -34.96309173680423 14.923664828495072 a59.01491228070176,59.01491228070176 0 0,0 -0.38970681525141454,-0.9351544888186683 l 35.21412439659213 -14.321277830235124" fill="red" stroke="none" /><line stroke="#e1ed5e" stroke-width="0.3" x1="15.003131293944662" x2="10.003315487706104" y1="100.72959589197737" y2="100.7725132973878" /><path d="M 14.003168132696942 100.73817937305945 a86.0,86.0 0 0,1 10.791469493833604,-42.453326145846276" fill="none" id="id34" stroke="none" /><text fill="#e1ed5e" style="font-size:6.75px; font-family:Arial;" text-anchor="middle"><textPath startOffset="22.145653131862435" xlink:href="#id34">October</textPath></text><path d="M 80.5471966667186 92.08871423366112 l -9.515947361573037 -3.87005294944004 a31.27280701754386,31.27280701754386 0 0,0 0.20651095724436108,-0.4955511197121764 l 9.448110559792198 4.03283657859348" fill="red" stroke="none" /><line stroke="#e1ed5e" stroke-width="0.3" x1="26.387840678322718" x2="22.05771365940052" y1="57.5" y2="55.0" /><path d="M 25.521815274538284 57.0 a86.0,86.0 0 0,1 29.574782752854787,-30.346332500585742" fill="none" id="id35" stroke="none" /><text fill="#e1ed5e" style="font-size:6.75px; font-family:Arial;" text-anchor="middle"><textPath startOffset="21.40746469413373" xlink:href="#id35">November</textPath></text><path d="M 84.58840730492382 85.73525988315684 l -8.066301439820572 -7.466048189809723 a31.99122807017544,31.99122807017544 0 0,0 0.376497399483633,-0.3998271911371664 l 7.936948206600667 7.6034168408913985" fill="red" stroke="none" /><path d="M 84.83555147118756 85.47280134310135 l -10.216049535199966 -9.786744358331722 a35.14736842105263,35.14736842105263 0 0,0 0.4211210380739201,-0.4321072838024303 l 10.046541695975245 9.960674334201883" fill="red" stroke="none" /><path d="M 85.34317274990677 84.96080404539775 l -23.099502595907165 -23.70212461851056 a54.09649122807018,54.09649122807018 0 0,0 0.6706097659434805,-0.6424289859672344 l 22.689220344098384 24.09516573478336" fill="red" stroke="none" /><line stroke="#e1ed5e" stroke-width="0.3" x1="56.869717070023135" x2="54.33264160355391" y1="26.7553504044142" y2="22.446841604673864" /><path d="M 56.362301976729285 25.89364864446614 a86.0,86.0 0 0,1 42.16139366436587,-11.88097634709845" fill="none" id="id36" stroke="none" /><text fill="#e1ed5e" style="font-size:6.75px; font-family:Arial;" text-anchor="middle"><textPath startOffset="22.145653131862474" xlink:href="#id36">December</textPath></text><path d="M 93.9579478882505 79.88797359093562 l -11.168962997216482 -37.17784530938744 a59.819298245614036,59.819298245614036 0 0,0 0.9859929120988903,-0.2870081666973229 l 10.529110072735968 37.36409717038728" fill="red" stroke="none" /><path d="M 98.9189461498227 79.02784411241856 l -2.3135184589028097 -44.88164004128905 a65.94122807017544,65.94122807017544 0 0,0 1.130968174534442,-0.048568639671060454 l 1.5427245237675475 44.91474124938594" fill="red" stroke="none" /></svg>