<?xml version="1.0" encoding="utf-8" ?>
<svg baseProfile="full" height="200mm" version="1.1" viewBox="0,0,200,200" width="200mm" xmlns="http://www.w3.org/2000/svg" xmlns:ev="http://www.w3.org/2001/xml-events" xmlns:xlink="http://www.w3.org/1999/xlink"><defs /><rect fill="#1a1a1a" height="200" width="200" x="0" y="0" /><text alignment-baseline="middle" fill="#e1ed5e" style="dominant-baseline: central; font-size:9.0px; font-family:Arial;" text-anchor="middle" x="100.0" y="100.0">2022</text><line stroke="#e1ed5e" stroke-width="0.3" x1="100.0" x2="100.0" y1="15.0" y2="10.0" /><path d="M 100.0 14.0 a86.0,86.0 0 0,1 42.46469731375804,11.215312516191453" fill="none" id="id1" stroke="none" /><text fill="#e1ed5e" style="font-size:6.75px; font-family:Arial;" text-anchor="middle"><textPath startOffset="22.20632615414155" xlink:href="#id1">January</textPath></text><line stroke="#e1ed5e" stroke-width="0.3" x1="143.23703022742887" x2="145.7803849466894" y1="26.81831364943548" y2="22.513508569990506" /><path d="M 143.74570117128098 25.957352633546492 a86.0,86.0 0 0,1 28.547481713284135,27.462654790039103" fill="none" id="id2" stroke="none" /><text fill="#e1ed5e" style="font-size:6.75px; font-family:Arial;" text-anchor="middle"><textPath startOffset="19.985693538727396" xlink:href="#id2">February</textPath></text><line stroke="#e1ed5e" stroke-width="0.3" x1="172.23445277983987" x2="176.4835382374775" y1="55.19839476539836" y2="52.563006222186495" /><path d="M 173.08426987136738 54.67131705675599 a86.0,86.0 0 0,1 12.851231095245387,41.99856678651699" fill="none" id="id3" stroke="none" /><text fill="#e1ed5e" style="font-size:6.75px; font-family:Arial;" text-anchor="middle"><textPath startOffset="22.20632615414155" xlink:href="#id3">March</textPath></text><line stroke="#e1ed5e" stroke-width="0.3" x1="184.98032266829074" x2="189.97916517819016" y1="98.17113171792111" y2="98.06355123074" /><path d="M 185.9800911702706 98.14961562048488 a86.0,86.0 0 0,1 -9.607161424134198,41.387399972396054" fill="none" id="id4" stroke="none" /><text fill="#e1ed5e" style="font-size:6.75px; font-family:Arial;" text-anchor="middle"><textPath startOffset="21.466115282336823" xlink:href="#id4">April</textPath></text><line stroke="#e1ed5e" stroke-width="0.3" x1="174.80103733775053" x2="179.2010983576182" y1="140.37084112569926" y2="142.7455964860345" /><path d="M 175.68104954172406 140.8457921977663 a86.0,86.0 0 0,1 -30.038265399797805,32.042727171017184" fill="none" id="id5" stroke="none" /><text fill="#e1ed5e" style="font-size:6.75px; font-family:Arial;" text-anchor="middle"><textPath startOffset="22.206326154141568" xlink:href="#id5">May</textPath></text><path d="M 115.32070863581623 114.36230785411682 l 13.157419664797917 12.334345380726607 a39.03479326764415,39.03479326764415 0 0,0 -0.4637583423120861,0.48624876783279863 l -12.943154771106869 -12.559001265141912" fill="#ffd213" stroke="none" /><path d="M 115.07121518719521 114.62390073753431 l 11.762241111160689 11.413137183967898 a37.3893262929612,37.3893262929612 0 0,0 -0.45216047309309787,0.45803617202490216 l -11.564040013012056 -11.613913849973464" fill="#ffbc11" stroke="none" /><path d="M 114.81725581225074 114.88116024355365 l 14.454002169217858 14.516339946224534 a41.48517278770449,41.48517278770449 0 0,0 -0.5103664935905649,0.4995010318862094 l -14.2019857232515 -14.762991081033315" fill="#fff116" stroke="none" /><path d="M 114.29624159901734 115.38237550388516 l 12.423191983078949 13.36702396339688 a39.24864457121305,39.24864457121305 0 0,0 -0.49883242470817557,0.4556715927682849 l -12.191260008903908 -13.578888322751748" fill="#ffd413" stroke="none" /><path d="M 114.0293411484842 115.62618273729858 l 12.330157828015773 13.733595709241435 a39.45655556079393,39.45655556079393 0 0,0 -0.5092857672723474,0.449385475977039 l -12.091929707836837 -13.943804326990762" fill="#ffd714" stroke="none" /><path d="M 113.20401910651253 116.32954008644616 l 10.715854268988105 13.252402199240217 a38.04276083164396,38.04276083164396 0 0,0 -0.5127484957020313,0.4073584156500417 l -10.486148280568724 -13.434894528895384" fill="#ffc412" stroke="none" /><path d="M 112.92097659922987 116.55440617244103 l 12.216783069989877 15.65219064581137 a40.855499504973835,40.855499504973835 0 0,0 -0.5581080519535848,0.4279334552897878 l -11.945546289542797 -15.86016344292853" fill="#ffe915" stroke="none" /><path d="M 112.34349029814194 116.9893568818739 l 9.739898973174371 13.405820853892948 a37.57050586959596,37.57050586959596 0 0,0 -0.5264749122054843,0.37562587108271966 l -9.507696733120003 -13.571490986819887" fill="#ffbe11" stroke="none" /><path d="M 112.04921762599082 117.19931262002967 l 17.51229461006294 24.997426309475028 a51.521333270472866,51.521333270472866 0 0,0 -0.7307273528409682,0.5026009364117612 l -17.07941037259909 -25.29516803525188" fill="#94ff23" stroke="none" /><path d="M 111.45004920935366 117.60387380957326 l 10.414681033240315 16.012047400315726 a40.101079628494645,40.101079628494645 0 0,0 -0.581882320017497,0.3713848274442716 l -10.137516911175886 -16.188946656583806" fill="#ffdf14" stroke="none" /><path d="M 111.1453310114006 117.79835938074945 l 10.027172301662235 16.012733584594873 a39.89316863891377,39.89316863891377 0 0,0 -0.5851393200663596,0.35944036196394946 l -9.750053781663567 -16.182962413387198" fill="#ffdd14" stroke="none" /><line stroke="#e1ed5e" stroke-width="0.3" x1="143.8653032363475" x2="146.44561519142675" y1="172.8068346515853" y2="177.08958963109032" /><path d="M 144.38136562736335 173.6633856474863 a86.0,86.0 0 0,1 -40.68145358897372,12.25698825130547" fill="none" id="id6" stroke="none" /><text fill="#e1ed5e" style="font-size:6.75px; font-family:Arial;" text-anchor="middle"><textPath startOffset="21.466115282336833" xlink:href="#id6">June</textPath></text><path d="M 110.21172684928248 118.3499491758327 l 14.490724927469408 26.039089163329795 a50.799585120927816,50.799585120927816 0 0,0 -0.7677442611390115,0.41863538532865846 l -14.040357854461746 -26.284665200418225" fill="#9cff22" stroke="none" /><path d="M 107.59598834532513 119.57807347666477 l 8.079086185023566 20.823220858684518 a43.3355805949743,43.3355805949743 0 0,0 -0.6977642999906657,0.26383475293869496 l -7.7194516642726265 -20.959203861729844" fill="#f6ff19" stroke="none" /><path d="M 106.57524785965236 119.94407469862006 l 7.0687556901444015 21.4409851186947 a43.576163311489324,43.576163311489324 0 0,0 -0.714397280522717,0.22872744930081915 l -6.698637064530744 -21.559485414655228" fill="#f3ff19" stroke="none" /><path d="M 104.83641907484287 120.43548508189849 l 4.838927236165917 20.44608290076139 a42.01089057564471,42.01089057564471 0 0,0 -0.7051424968560019,0.16048813653755678 l -4.486264589917052 -20.52634777087663" fill="#fff817" stroke="none" /><path d="M 103.7750983002368 120.6578951692458 l 4.013055323829126 21.960031128949808 a43.323699966998255,43.323699966998255 0 0,0 -0.7347514429944164,0.12774595646123665 l -3.6344549093626592 -22.025855663932052" fill="#f6ff19" stroke="none" /><path d="M 101.98527174616119 120.90594882070398 l 1.5301073570834824 16.11282997364164 a37.185317985250876,37.185317985250876 0 0,0 -0.6377382651893209,0.05502674098320649 l -1.2525247741526195 -16.136780966903512" fill="#ffb911" stroke="none" /><line stroke="#e1ed5e" stroke-width="0.3" x1="102.19456741930631" x2="102.32365962044197" y1="184.97166512339345" y2="189.96999836594603" /><path d="M 102.22038585953345 185.97133177190398 a86.0,86.0 0 0,1 -42.740103519485714,-10.115201625700543" fill="none" id="id7" stroke="none" /><text fill="#e1ed5e" style="font-size:6.75px; font-family:Arial;" text-anchor="middle"><textPath startOffset="22.20632615414155" xlink:href="#id7">July</textPath></text><path d="M 90.42595943632237 118.69057910512821 l -7.282427535447406 14.216859331579775 a36.973504313799445,36.973504313799445 0 0,0 -0.563949990342182,-0.29503198102444733 l 7.5260684283160835 -14.08939793161061" fill="#ffb610" stroke="none" /><line stroke="#e1ed5e" stroke-width="0.3" x1="58.666819895761336" x2="56.23545636021788" y1="174.27360380694188" y2="178.64263932499728" /><path d="M 58.180547188652646 175.14741091055294 a86.0,86.0 0 0,1 -31.652253787137756,-30.449443065178592" fill="none" id="id8" stroke="none" /><text fill="#e1ed5e" style="font-size:6.75px; font-family:Arial;" text-anchor="middle"><textPath startOffset="22.20632615414155" xlink:href="#id8">August</textPath></text><path d="M 89.7882731507175 118.34994917583269 l -11.73498854138234 21.087172276692375 a45.132525576351895,45.132525576351895 0 0,0 -0.6755935746136367,-0.3836196635748364 l 12.096230882917185 -20.882049447322906" fill="#dfff1b" stroke="none" /><path d="M 89.4739219176387 118.17145234162733 l -7.600154911666734 13.120352298902576 a36.16265145443402,36.16265145443402 0 0,0 -0.5359513810200988,-0.31664952281356396 l 7.824874163715215 -12.987584203795262" fill="#ffab0f" stroke="none" /><path d="M 88.24862548938628 117.40417183066458 l -10.288200681820594 15.237163306559863 a39.38527179293763,39.38527179293763 0 0,0 -0.5586015262277498,-0.38421122334009805 l 10.548959092671236 -15.05781129385466" fill="#ffd614" stroke="none" /><path d="M 87.07902340077011 116.55440617244103 l -9.760634012986676 12.505362788224158 a36.86360850502098,36.86360850502098 0 0,0 -0.4968556275593743,-0.3947321600081545 l 9.974447133263407 -12.335496714210873" fill="#ffb510" stroke="none" /><path d="M 86.24171649860922 115.8653595955263 l -14.621622115334068 16.860918202930257 a43.31775965301023,43.31775965301023 0 0,0 -0.5591242861382333,-0.49336217425095685 l 14.90968875437889 -16.60673288690701" fill="#f6ff19" stroke="none" /><path d="M 83.72743513129215 113.27417163493433 l -13.958762801666087 11.38671221996276 a39.01400216868606,39.01400216868606 0 0,0 -0.42001747949489615,-0.524036386309707 l 14.152698193215842 -11.144748000074797" fill="#ffd113" stroke="none" /><path d="M 83.50135304334701 112.99209946851258 l -19.204733079994455 15.123046338106441 a45.44439206072321,45.44439206072321 0 0,0 -0.4786661771191099,-0.6187405587764645 l 19.462206074331633 -14.790227785216723" fill="#dcff1b" stroke="none" /><path d="M 82.85270091963577 112.12312394758628 l -14.764898892262147 10.438769307374285 a39.08231577954835,39.08231577954835 0 0,0 -0.3836377676571009,-0.5526588173668229 l 14.94239756708138 -10.183069227820448" fill="#ffd213" stroke="none" /><path d="M 82.6465618267979 111.8261652097733 l -14.19871385111133 9.67625747091677 a38.18235821036255,38.18235821036255 0 0,0 -0.3654540680179988,-0.5463042462278211 l 14.36317102454006 -9.430416310483126" fill="#ffc612" stroke="none" /><line stroke="#e1ed5e" stroke-width="0.3" x1="26.63291911575756" x2="22.317208475507996" y1="142.92168965132927" y2="145.44649492493687" /><path d="M 25.769776987707644 143.4266507060508 a86.0,86.0 0 0,1 -11.730757126820373,-40.83630448921669" fill="none" id="id9" stroke="none" /><text fill="#e1ed5e" style="font-size:6.75px; font-family:Arial;" text-anchor="middle"><textPath startOffset="21.46611528233685" xlink:href="#id9">September</textPath></text><path d="M 81.87401531095188 110.60418214915194 l -17.30219282443815 10.122242042990871 a41.04558955259064,41.04558955259064 0 0,0 -0.35152225465629844,-0.6129086808922853 l 17.473867075246826 -9.822913516240279" fill="#ffec16" stroke="none" /><path d="M 81.35079622478065 109.6543875284942 l -15.285295725434372 7.912947394411938 a38.212059780302674,38.212059780302674 0 0,0 -0.29736503045256,-0.5867294161106582 l 15.419239425673199 -7.648663766598594" fill="#ffc712" stroke="none" /><path d="M 81.02952815118164 109.00673069616217 l -13.466521834315126 6.393585596724045 a35.90721795294894,35.90721795294894 0 0,0 -0.2602852386239765,-0.5606312479341634 l 13.57458168977893 -6.160834281511056" fill="#ffa80f" stroke="none" /><path d="M 80.73074385275274 108.34839909993369 l -41.91342562187294 18.158978326040287 a66.67804441091886,66.67804441091886 0 0,0 -0.4472160538711224,-1.0570866458646673 l 42.21979265693637 -17.43481715450946" fill="#37ff75" stroke="none" /><path d="M 80.0844068197444 106.66101706037122 l -13.433237076512984 4.4929126907138315 a35.164678704445805,35.164678704445805 0 0,0 -0.1870555762766893,-0.5756978676435971 l 13.508584903805923 -4.2610159230924305" fill="#ff9e0e" stroke="none" /><path d="M 79.86692584326677 105.97154293290107 l -13.411924842517582 3.978025630186799 a34.989439441799064,34.989439441799064 0 0,0 -0.16629541369139578,-0.5788961509684631 l 13.478412893095081 -3.7465720037137396" fill="#ff9b0e" stroke="none" /><path d="M 79.67330655649465 105.27499134158121 l -6.07472112292586 1.5764542036812645 a27.2759417283485,27.2759417283485 0 0,0 -0.11402471789029624,-0.45547206754051456 l 6.100957155111217 -1.4716542967433581" fill="#ff2e04" stroke="none" /><path d="M 79.58551787078972 104.9243191809786 l -16.437647460505513 3.965039238693769 a37.90910376691339,37.90910376691339 0 0,0 -0.1475556518089219,-0.6356658861026397 l 16.503463678244987 -3.681504695242555" fill="#ffc312" stroke="none" /><path d="M 79.4281124754447 104.21870165774334 l -19.8173295831992 4.06396355535664 a41.22973928621941,41.22973928621941 0 0,0 -0.13658836788276585,-0.6964611451596866 l 19.884347884057632 -3.722238683128999" fill="#ffee16" stroke="none" /><path d="M 79.1416061653843 102.43462659150553 l -16.70952939690679 1.950364199842629 a37.82296921408703,37.82296921408703 0 0,0 -0.069914315013687,-0.6473197263229301 l 16.74062601342153 -1.662448151634917" fill="#ffc212" stroke="none" /><line stroke="#e1ed5e" stroke-width="0.3" x1="15.007084014347285" x2="10.007500721073583" y1="101.09737516637583" y2="101.16192664675087" /><path d="M 14.007167355692545 101.11028546245083 a86.0,86.0 0 0,1 10.666146001902534,-42.60595125391555" fill="none" id="id10" stroke="none" /><text fill="#e1ed5e" style="font-size:6.75px; font-family:Arial;" text-anchor="middle"><textPath startOffset="22.20632615414155" xlink:href="#id10">October</textPath></text><path d="M 79.00019446554 99.90962569577889 l -10.024187027316366 -0.04313987224736422 a31.024279854792326,31.024279854792326 0 0,0 0.006894766345729362,-0.5340072517758262 l 10.021959253852922 0.21568338208366244" fill="#ff6409" stroke="none" /><path d="M 79.26566170972629 96.67025291283419 l -62.20301487082115 -9.989241261497433 a84.0,84.0 0 0,0 0.2415525539191079,-1.4256568467366857 l 62.021850455381816 11.058483896549948" fill="#4dd2ff" stroke="none" /><path d="M 79.32604984820605 96.31383870115002 l -12.593847999214063 -2.2454806535496026 a33.79246617321201,33.79246617321201 0 0,0 0.10703244880055647,-0.5717716213307948 l 12.553329826503646 2.4619303523429696" fill="#ff8b0c" stroke="none" /><path d="M 79.71946130924805 94.55025226153421 l -17.669339258172467 -4.748071199229069 a39.296167083117254,39.296167083117254 0 0,0 0.1811613733181168,-0.6517338482862077 l 17.58499111428799 5.051516350934219" fill="#ffd513" stroke="none" /><path d="M 80.02781315780177 93.51064311812611 l -16.575851075859585 -5.385820496370187 a38.42888124086559,38.42888124086559 0 0,0 0.20982664382861038,-0.6273549578082158 l 16.480687138259203 5.670348557100724" fill="#ffca12" stroke="none" /><path d="M 80.2630227832202 92.82701384747504 l -16.788201543781117 -6.101316117290805 a38.862524161991416,38.862524161991416 0 0,0 0.2339068920628736,-0.6267541795383178 l 16.680690063216613 6.389393433858465" fill="#ffcf13" stroke="none" /><path d="M 80.38941819471856 92.48833698450439 l -42.347984018156176 -16.22102742736133 a66.34835698458346,66.34835698458346 0 0,0 0.41769908324352784,-1.0629986062378205 l 42.06249138503096 16.947575038494914" fill="#36ff71" stroke="none" /><path d="M 80.52162464483688 92.15188598940014 l -2.9615652501249854 -1.19325669153668 a24.19291876856348,24.19291876856348 0 0,0 0.15895705338026606,-0.38492711312068667 l 2.9405865098585195 1.244058375110678" fill="#ff0000" stroke="none" /><line stroke="#e1ed5e" stroke-width="0.3" x1="26.266209847984243" x2="21.928928074336255" y1="57.71137044288968" y2="55.22380399835378" /><path d="M 25.398753493254645 57.2138571539825 a86.0,86.0 0 0,1 29.58750427330803,-30.4925239686951" fill="none" id="id11" stroke="none" /><text fill="#e1ed5e" style="font-size:6.75px; font-family:Arial;" text-anchor="middle"><textPath startOffset="21.46611528233685" xlink:href="#id11">November</textPath></text><path d="M 82.95767976084542 87.72973835380427 l -12.70038923296009 -9.144124550535853 a36.649757201452076,36.649757201452076 0 0,0 0.3730201598213342,-0.5087990787878129 l 12.541106460625123 9.361386072995169" fill="#ffb210" stroke="none" /><path d="M 84.31358615837235 86.03803664274999 l -6.926545285025914 -6.1650911698648665 a30.272830135307153,30.272830135307153 0 0,0 0.34980451185154837,-0.3862628788675115 l 6.81939713255832 6.283406836001935" fill="#ff5a08" stroke="none" /><path d="M 85.57189188830299 84.74124197986013 l -14.68863167997668 -15.53428035862997 a42.379190042902266,42.379190042902266 0 0,0 0.5343654959295263,-0.4966344912109101 l 14.419058300252297 15.78481943591553" fill="#fffc17" stroke="none" /><line stroke="#e1ed5e" stroke-width="0.3" x1="56.76296977257108" x2="54.21961505331056" y1="26.818313649435495" y2="22.513508569990535" /><path d="M 56.25429882871898 25.957352633546506 a86.0,86.0 0 0,1 42.26535254187918,-11.944610805530505" fill="none" id="id12" stroke="none" /><text fill="#e1ed5e" style="font-size:6.75px; font-family:Arial;" text-anchor="middle"><textPath startOffset="22.20632615414155" xlink:href="#id12">December</textPath></text><path d="M 89.63071344664047 81.73862282372117 l -12.762274044693969 -22.475673592189676 a46.84630616189713,46.84630616189713 0 0,0 0.7046485539285287,-0.3921361573544268 l 12.373501401693396 22.692025147104285" fill="#cbff1d" stroke="none" /></svg>